# AST/ASF file generated using VICON BodyLanguage
# -----------------------------------------------
:version 1.10
:name VICON
:units
  mass 1.0
  length 0.45
  angle deg
:documentation
   .ast/.asf automatically generated from VICON data using
   VICON BodyBuilder and BodyLanguage model FoxedUp or BRILLIANT.MOD
:root
   order TX TY TZ RX RY RZ
   axis XYZ
   position 0 0 0  
   orientation 0 0 0 
:bonedata
  begin
     id 1 
     name lhipjoint
     direction 0.57768 -0.667037 0.470475 
     length 2.36008 
     axis 0 0 0  XYZ
  end
  begin
     id 2 
     name lfemur
     direction 0.34202 -0.939693 0  
     length 6.97235  
     axis 0 0 20  XYZ
    dof rx ry rz
    limits (-160.0 20.0)
           (-70.0 70.0)
           (-60.0 70.0)
  end
  begin
     id 3 
     name ltibia
     direction 0.34202 -0.939693 0   
     length 6.93428   
     axis 0 0 20   XYZ
    dof rx
    limits (-10.0 170.0)
  end
  begin
     id 4 
     name lfoot
     direction 0.133018 -0.365463 0.921272   
     length 2.18603   
     axis -90 7.62852e-016 20   XYZ
    dof rx rz
    limits (-45.0 90.0)
           (-70.0 20.0)
  end
  begin
     id 5 
     name ltoes
     direction 1.53519e-011 -4.22055e-011 1   
     length 1.07924   
     axis -90 7.62852e-016 20   XYZ
    dof rx
    limits (-90.0 20.0)
  end
  begin
     id 6 
     name rhipjoint
     direction -0.577712 -0.667019 0.470462   
     length 2.36015  
     axis 0 0 0  XYZ 
  end
  begin
     id 7 
     name rfemur
     direction -0.34202 -0.939693 0   
     length 6.71195   
     axis 0 0 -20   XYZ
    dof rx ry rz
    limits (-160.0 20.0)
           (-70.0 70.0)
           (-70.0 60.0)
  end
  begin
     id 8 
     name rtibia
     direction -0.34202 -0.939693 0   
     length 7.04592   
     axis 0 0 -20   XYZ
    dof rx
    limits (-10.0 170.0)
 end
 begin
     id 9 
     name rfoot
     direction -0.113796 -0.312651 0.943027   
     length 2.03846  
     axis -90 -7.62852e-016 -20   XYZ
    dof rx rz
    limits (-45.0 90.0)
           (-20.0 70.0)
  end
  begin
     id 10 
     name rtoes
     direction -1.53586e-011 -4.218e-011 1   
     length 1.01562   
     axis -90 -7.62852e-016 -20   XYZ
    dof rx
    limits (-90.0 20.0)
  end
  begin
     id 11 
     name lowerback
     direction -0.0417299 0.991937 -0.119667   
     length 2.05257   
     axis 0 0 0   XYZ
    dof rx ry rz
    limits (-20.0 45.0)
           (-30.0 30.0)
           (-30.0 30.0)
  end
  begin
     id 12 
     name upperback
     direction -0.00017666 0.999999 0.00105178   
     length 2.05693   
     axis 0 0 0   XYZ
    dof rx ry rz
    limits (-20.0 45.0)
           (-30.0 30.0)
           (-30.0 30.0)
  end
  begin
     id 13 
     name thorax
     direction 0.0185169 0.998203 0.0569866   
     length 2.0932   
     axis 0 0 0   XYZ
    dof rx ry rz
    limits (-20.0 45.0)
           (-30.0 30.0)
           (-30.0 30.0)
  end
  begin
     id 14 
     name lowerneck
     direction -0.0212406 0.982645 0.184277   
     length 1.72509   
     axis 0 0 0   XYZ
    dof rx ry rz
    limits (-20.0 45.0)
           (-30.0 30.0)
           (-30.0 30.0)
  end
  begin
     id 15 
     name upperneck
     direction 0.00528579 0.965323 -0.261004   
     length 1.76294   
     axis 0 0 0   XYZ
    dof rx ry rz
    limits (-20.0 45.0)
           (-30.0 30.0)
           (-30.0 30.0)
  end
  begin
     id 16
     name head
     direction 0.00695421 0.994078 -0.108445  
     length 1.78678  
     axis 0 0 0   XYZ
    dof rx ry rz
    limits (-20.0 45.0)
           (-30.0 30.0)
           (-30.0 30.0)
  end
  begin
     id 17 
     name lclavicle
     direction 0.97277 0.211305 -0.095232  
     length 3.84823  
     axis 0 0 0   XYZ
    dof ry rz
    limits (-20.0 10.0)
           (0.0 20.0)
  end
  begin
     id 18 
     name lhumerus
     direction 1 -4.48957e-011 -1.98313e-027   
     length 4.97185   
     axis 180 -30 -90   XYZ
    dof rx ry rz
    limits (-60.0 90.0)
           (-90.0 90.0)
           (-90.0 90.0)
  end
  begin
     id 19
     name lradius
     direction 1 -4.4898e-011 7.31063e-027   
     length 3.35811   
     axis 180 -30 -90   XYZ
    dof rx
    limits (-10.0 170.0)
  end
  begin
     id 20
     name lwrist
     direction 1 -4.48938e-011 9.95048e-027   
     length 1.67905   
     axis -8.75986e-015 90 90   XYZ
    dof ry
    limits (-180.0 0.0)
 end
  begin
     id 21 
     name lhand
     direction 1 -4.4901e-011 1.9901e-026   
     length 0.622776   
     axis -1.26985e-014 90 90   XYZ
    dof rx rz
    limits (-90.0 90.0)
           (-45.0 45.0)
  end
  begin
     id 22 
     name lfingers
     direction 1 -4.48961e-011 3.98019e-026   
     length 0.502098   
     axis -2.5397e-014 90 90   XYZ
    dof rx
    limits (0.0 90.0)
  end
  begin
     id 23
     name lthumb
     direction 0.707107 -6.34933e-011 0.707107   
     length 0.720915   
     axis -90 45 2.85299e-015   XYZ
    dof rx rz
    limits (-45.0 45.0)
           (-45.0 45.0)
  end
  begin
     id 24 
     name rclavicle
     direction -0.990867 0.133739 -0.0172226   
     length 3.78845  
     axis 0 0 0   XYZ 
    dof ry rz
    limits (-10.0 20.0)
           (-20.0 0.0)
  end
  begin
     id 25 
     name rhumerus
     direction -1 -4.48972e-011 -1.99267e-027  
     length 4.96493   
     axis 180 30 90   XYZ
    dof rx ry rz
    limits (-90.0 60.0)
           (-90.0 90.0)
           (-90.0 90.0)
  end
  begin
     id 26 
     name rradius
     direction -1 -4.48969e-011 8.96093e-027   
     length 3.34929   
     axis 180 30 90   XYZ
    dof rx
    limits (-10.0 170.0)
  end
  begin
     id 27 
     name rwrist
     direction -1 -4.48953e-011 9.95048e-027   
     length 1.67464   
     axis -8.75986e-015 -90 -90   XYZ
    dof ry
    limits (-180.0 0.0)
  end
  begin
     id 28
     name rhand
     direction -1 -4.49001e-011 1.9901e-026   
     length 0.638041   
     axis -1.26985e-014 -90 -90   XYZ
    dof rx rz
    limits (-90.0 90.0)
           (-45.0 45.0)
  end
  begin
     id 29
     name rfingers
     direction -1 -4.48967e-011 3.98019e-026   
     length 0.514405   
     axis -2.5397e-014 -90 -90   XYZ
    dof rx
    limits (0.0 90.0)
  end
  begin
     id 30
     name rthumb
     direction -0.707107 -6.34904e-011 0.707107   
     length 0.738586   
     axis -90 -45 -2.85299e-015   XYZ
    dof rx rz
    limits (-45.0 45.0)
           (-45.0 45.0)
  end
:hierarchy
  begin
    root lhipjoint rhipjoint lowerback
    lhipjoint lfemur
    lfemur ltibia
    ltibia lfoot
    lfoot ltoes
    rhipjoint rfemur
    rfemur rtibia
    rtibia rfoot
    rfoot rtoes
    lowerback upperback
    upperback thorax
    thorax lowerneck lclavicle rclavicle
    lowerneck upperneck
    upperneck head
    lclavicle lhumerus
    lhumerus lradius
    lradius lwrist
    lwrist lhand lthumb
    lhand lfingers
    rclavicle rhumerus
    rhumerus rradius
    rradius rwrist
    rwrist rhand rthumb
    rhand rfingers
  end

#!OML:ASF E:\Mandelcareful walks\Project 1\Capture day 1\Session 1\Subject1.ASF
:FULLY-SPECIFIED
:DEGREES
1
root -4.18905 16.718 -0.0913649 152.782 70.7111 148.506
lowerback -5.88497 2.59428 -11.1637
upperback 2.97678 4.62411 -1.88947
thorax 5.77008 1.92006 4.7177
lowerneck -4.87914 16.529 17.066
upperneck 20.2176 26.9067 -17.8622
head 12.3429 12.6884 -4.92636
rclavicle -4.08751e-014 3.53837e-014
rhumerus -30.7574 -8.19789 -83.1368
rradius 30.1044
rwrist -9.67854
rhand -8.8406 -28.8522
rfingers 7.12502
rthumb 17.0999 -58.1197
lclavicle -4.08751e-014 3.53837e-014
lhumerus -24.7894 17.424 84.6909
lradius 21.605
lwrist 0.27556
lhand -20.4497 -7.72284
lfingers 7.12502
lthumb 5.90567 22.1749
rfemur 0.103015 -0.480225 3.34868
rtibia 19.244
rfoot -28.5039 -30.1349
rtoes 8.9633
lfemur -1.57774 -8.82803 -24.7162
ltibia 10.8525
lfoot -16.1802 16.5335
ltoes 4.28712
2
root -4.18696 16.7293 -0.0886725 153.557 70.9972 149.128
lowerback -6.14482 2.57729 -10.8464
upperback 2.89441 4.59899 -1.89215
thorax 5.85416 1.91595 4.55301
lowerneck -8.19966 17.0546 15.624
upperneck 24.3522 27.3817 -14.3882
head 13.884 12.7071 -3.08394
rclavicle -3.71976e-014 5.96354e-016
rhumerus -30.7585 -8.22426 -83.2197
rradius 29.5497
rwrist -8.92484
rhand -8.61292 -29.887
rfingers 7.12502
rthumb 17.319 -59.1354
lclavicle -3.71976e-014 5.96354e-016
lhumerus -24.8204 17.0836 84.7102
lradius 21.6877
lwrist 0.795205
lhand -20.0301 -8.43292
lfingers 7.12502
lthumb 6.31071 21.4531
rfemur 0.0454615 -0.011806 3.77303
rtibia 18.8107
rfoot -28.3903 -30.491
rtoes 9.19505
lfemur -1.94915 -8.77902 -24.334
ltibia 11.246
lfoot -16.1154 16.5377
ltoes 5.33779
3
root -4.18357 16.742 -0.085822 154.451 71.2241 149.846
lowerback -6.41356 2.54991 -10.528
upperback 2.79637 4.55906 -1.90398
thorax 5.92959 1.90598 4.3765
lowerneck -6.53965 16.6364 16.7124
upperneck 22.5502 27.0592 -16.4094
head 13.308 12.6558 -4.18036
rclavicle 3.90115e-014 -1.80894e-014
rhumerus -30.8066 -8.40007 -83.2491
rradius 29.007
rwrist -8.05314
rhand -8.32716 -30.9099
rfingers 7.12502
rthumb 17.594 -60.1338
lclavicle 3.90115e-014 -1.80894e-014
lhumerus -24.7643 16.8818 84.6297
lradius 21.5755
lwrist 0.820827
lhand -19.8941 -8.75037
lfingers 7.12502
lthumb 6.442 21.1317
rfemur -0.125086 0.295817 4.192
rtibia 18.6836
rfoot -28.4208 -30.3142
rtoes 10.7235
lfemur -2.12118 -8.86423 -23.9503
ltibia 11.1777
lfoot -15.998 16.7816
ltoes 5.19782
4
root -4.17967 16.7434 -0.0855624 153.551 71.1915 148.946
lowerback -6.3085 2.5395 -10.688
upperback 2.68538 4.5579 -2.1329
thorax 5.75987 1.92066 4.21317
lowerneck -8.84259 17.21 14.9079
upperneck 24.8145 27.052 -12.6724
head 13.6974 12.5929 -2.41645
rclavicle 1.0051e-013 -3.84648e-014
rhumerus -30.9743 -8.77703 -83.2824
rradius 28.7502
rwrist -7.63207
rhand -8.0241 -31.9465
rfingers 7.12502
rthumb 17.8856 -61.1441
lclavicle 1.0051e-013 -3.84648e-014
lhumerus -24.7938 16.5681 84.4558
lradius 21.4489
lwrist 0.876981
lhand -20.1947 -8.69129
lfingers 7.12502
lthumb 6.15182 21.1994
rfemur 0.00309688 0.0900449 3.83839
rtibia 18.4862
rfoot -28.3482 -30.2409
rtoes 9.5848
lfemur -2.07322 -8.93146 -24.2677
ltibia 11.2475
lfoot -15.9524 17.0096
ltoes 4.79388
5
root -4.18102 16.7494 -0.0858531 153.369 71.2641 148.728
lowerback -6.23949 2.55344 -10.6226
upperback 2.53889 4.55957 -2.27024
thorax 5.57845 1.9428 4.02415
lowerneck -8.75907 16.7364 14.3265
upperneck 24.8818 26.0927 -11.7653
head 13.2936 12.2274 -2.27719
rclavicle -1.68222e-014 4.24405e-014
rhumerus -31.2354 -8.82285 -83.4641
rradius 28.8597
rwrist -7.35292
rhand -7.68355 -32.9939
rfingers 7.12502
rthumb 18.2133 -62.1612
lclavicle -1.68222e-014 4.24405e-014
lhumerus -24.8628 14.8847 84.9871
lradius 21.8494
lwrist 2.92661
lhand -21.1778 -7.98314
lfingers 7.12502
lthumb 5.20268 21.933
rfemur 0.0134318 0.0327597 3.78094
rtibia 18.3248
rfoot -28.1271 -30.1921
rtoes 9.53688
lfemur -2.16383 -8.77933 -24.3088
ltibia 11.3319
lfoot -15.8914 17.0573
ltoes 4.07536
6
root -4.18487 16.7547 -0.0837135 153.478 71.1805 148.745
lowerback -6.26045 2.52943 -10.5352
upperback 2.35565 4.5245 -2.4781
thorax 5.42227 1.9493 3.75106
lowerneck -8.72744 16.2411 13.766
upperneck 24.9402 25.0212 -10.6526
head 12.872 11.826 -2.07907
rclavicle -4.59752e-014 2.60905e-014
rhumerus -31.4728 -9.15882 -83.6227
rradius 28.4857
rwrist -6.52336
rhand -6.96008 -35.1079
rfingers 7.12502
rthumb 18.9092 -64.2088
lclavicle -4.59752e-014 2.60905e-014
lhumerus -25.0714 14.9672 84.4858
lradius 21.3235
lwrist 0.770186
lhand -19.5666 -11.467
lfingers 7.12502
lthumb 6.75825 18.4051
rfemur -0.0105368 0.144758 3.77378
rtibia 18.209
rfoot -28.271 -30.4536
rtoes 9.68349
lfemur -2.36394 -8.5677 -24.3291
ltibia 11.444
lfoot -15.615 16.8727
ltoes 3.61314
7
root -4.17554 16.7519 -0.0867625 153.302 71.3178 148.671
lowerback -6.34375 2.42503 -10.587
upperback 2.39494 4.39789 -2.40003
thorax 5.52002 1.87587 3.85672
lowerneck -9.55391 15.8659 12.5377
upperneck 25.4322 24.1827 -9.32248
head 12.7241 11.4346 -1.57648
rclavicle -1.32813e-014 1.48592e-014
rhumerus -31.1986 -8.7782 -83.6839
rradius 28.3768
rwrist -6.47324
rhand -6.95872 -34.7444
rfingers 7.12502
rthumb 18.9105 -63.8451
lclavicle -1.32813e-014 1.48592e-014
lhumerus -25.0935 14.6919 84.7535
lradius 21.3857
lwrist 0.94034
lhand -19.6475 -12.2191
lfingers 7.12502
lthumb 6.68011 17.6556
rfemur 0.171753 0.255785 3.81674
rtibia 18.0066
rfoot -28.1603 -30.6011
rtoes 8.98001
lfemur -2.32116 -8.60294 -24.3213
ltibia 11.7125
lfoot -15.6859 17.0157
ltoes 3.73278
